# xmcd CD database file
#
# Track frame offsets:
#	150
#	18092
#	34132
#	57952
#	74810
#	88220
#	110290
#	131935
#	148880
#	165490
#	178070
#	192345
#
# Disc length: 2730 seconds
#
# Revision: 7
# Processed by: cddbd v1.5.2PL0 Copyright (c) Steve Scherf et al.
# Submitted via: cdripper 1,0,33,916
#
DISCID=b30aa80c
DTITLE=Various Artist - Amazing Grace 2: A Country Salute to Gospel
DYEAR=1997
DGENRE=Gospel
TTITLE0=John Berry - The Old Rugged Cross
TTITLE1=Trace Adkins - Wayfaring Stranger
TTITLE2=Lari White - There is Power In The Blood
TTITLE3=Bryan White - Will the Circle Be Unbroken/I'll Fly Away/Jesus Loves Me
TTITLE4=Kim Richey - A Beautiful Life
TTITLE5=Gary Chapman - I Surrender All
TTITLE6=Bela Fleck - Amazing Grace
TTITLE7=Charlie Daniels - Just a Little Talk With Jesus
TTITLE8=Marty Raybon - Were You There?
TTITLE9=Billy Ray Cyrus - Just As I Am
TTITLE10=The Cox Family - Neath The Old Olive Trees
TTITLE11=Ricky Van Shelton - Precious Lord, Take My Hand
EXTD=YEAR: 1997
EXTT0=
EXTT1=
EXTT2=
EXTT3=
EXTT4=
EXTT5=
EXTT6=
EXTT7=
EXTT8=
EXTT9=
EXTT10=
EXTT11=
PLAYORDER=
